# xmcd
# Track frame offsets:
# 150
# 20434
# 38306
# 57387
# 77745
# 96740
# 117523
# 133250
# 148511
# 165098
# 186930
#
# Disc length: 2681 seconds
# Revision: 0
# Processed by: cddbd v1.5.2PL0 Copyright (c) Steve Scherf et al.
# Submitted via: VisiTrax 2.10.0.248 - For more info visit www.synapsa.com
#
DISCID=920a770b
DTITLE=Al Green - Lay It Down
DYEAR=2008
DGENRE=Soul
TTITLE0=Lay it down  ft. Anthony Hamilton
TTITLE1=Just for me
TTITLE2=You've got the love I need ft. Anthony Hamilton
TTITLE3=No one like you
TTITLE4=What more do you want from me
TTITLE5=Take your time ft. Corinne Baily Rae
TTITLE6=Too much
TTITLE7=Stay with me (by the sea) (ft. John Legend)
TTITLE8=All I need
TTITLE9=I'm wild about you
TTITLE10=Standing in the rain
EXTD=
EXTT0=
EXTT1=
EXTT2=
EXTT3=
EXTT4=
EXTT5=
EXTT6=
EXTT7=
EXTT8=
EXTT9=
EXTT10=
PLAYORDER=
